<svg width="60" height="58" viewBox="0 0 60 58" fill="none" xmlns="http://www.w3.org/2000/svg">
<path d="M55.999 0H4.00102C1.79496 0 0 1.79508 0 4.00102V37C0 37.5519 0.448008 37.9999 0.999961 37.9999H58.9999C59.5519 37.9999 59.9999 37.5519 59.9999 37V4.00102C60 1.79508 58.205 0 55.999 0ZM58 36H2.00004V4.00102C2.00004 2.89699 2.89805 2.00004 4.00102 2.00004H55.999C57.102 2.00004 58 2.89699 58 4.00102V36Z" fill="white"/>
<path d="M59 35.9999H0.999961C0.448008 35.9999 0 36.448 0 37V41.9989C0 44.2049 1.79496 45.9999 4.00102 45.9999H55.999C58.205 45.9999 60 44.2049 60 41.9989L59.9999 37C59.9999 36.448 59.552 35.9999 59 35.9999ZM58 41.999C58 43.103 57.102 44 55.999 44H4.00102C2.89805 44 2.00004 43.103 2.00004 41.999V38H58.0001L58 41.999Z" fill="white"/>
<path d="M54.9999 4.00005H5.00001C4.44806 4.00005 4.00005 4.44806 4.00005 5.00001V37C4.00005 37.552 4.44806 38 5.00001 38H55C55.552 38 56 37.552 56 37V5.00001C56 4.44806 55.552 4.00005 54.9999 4.00005ZM54 36H5.99997V5.99997H54V36Z" fill="white"/>
<path d="M42.9999 52.0001H17C15.346 52.0001 14 53.3461 14 55.0001C14 56.6541 15.346 58.0001 17 58.0001H43C44.654 58.0001 46 56.6541 46 55.0001C46 53.3461 44.6539 52.0001 42.9999 52.0001ZM42.9999 56H17C16.4481 56 16 55.5511 16 55.0001C16 54.4491 16.4481 54.0001 17 54.0001H43C43.552 54.0001 44 54.4491 44 55.0001C44 55.5511 43.552 56 42.9999 56Z" fill="white"/>
<path d="M41 52.0001C37.6819 52.0001 35.9999 49.6451 35.9999 45.0001C35.9999 44.4482 35.5519 44.0001 35 44.0001H25C24.4481 44.0001 24 44.4482 24 45.0001C24 49.6451 22.3181 52.0001 19 52.0001C18.4481 52.0001 18 52.4481 18 53C18 53.552 18.4481 54 19 54H41C41.5519 54 41.9999 53.552 41.9999 53C41.9999 52.4481 41.5519 52.0001 41 52.0001ZM23.8709 52.0001C25.102 50.6361 25.8269 48.605 25.9729 46.0001H34.0279C34.1729 48.605 34.8979 50.6361 36.1299 52.0001H23.8709Z" fill="white"/>
</svg>
