<svg xmlns="http://www.w3.org/2000/svg">
<symbol viewBox="0 0 1080 798" id="substract-1">
<g opacity="0.07">
<path d="M1312.47 274.985C1182.93 85.9868 965.442 -38 719 -38C321.907 -38 0 283.907 0 681C0 738.771 6.81372 794.95 19.6807 848.779L385.824 482.636C420.922 447.538 477.828 447.538 512.926 482.636L808.875 778.585L1312.47 274.985Z" fill="#8794BA"/>
<path d="M1397.93 443.734L872.426 969.239C837.328 1004.34 780.422 1004.34 745.324 969.239L449.375 673.29L91.1038 1031.56C214.1 1251.39 449.195 1400 719 1400C1116.09 1400 1438 1078.09 1438 681C1438 597.861 1423.89 518.017 1397.93 443.734Z" fill="#8794BA"/>
</g>
</symbol><symbol viewBox="0 0 1005 1005" id="substract-2">
<g opacity="0.07">
<path d="M1834.54 437.483C1653.46 173.305 1349.47 -0.00012207 1005 -0.00012207C449.954 -0.00012207 0 449.953 0 1005C0 1085.75 9.52405 1164.28 27.5092 1239.52L539.295 727.732C588.354 678.672 667.896 678.672 716.955 727.732L1130.62 1141.4L1834.54 437.483Z" fill="#8794BA"/>
<path d="M1953.99 673.356L1219.46 1407.89C1170.4 1456.95 1090.85 1456.95 1041.79 1407.89L628.125 994.223L127.343 1495.01C299.264 1802.28 627.874 2010 1005 2010C1560.05 2010 2010 1560.05 2010 1005C2010 888.79 1990.28 777.187 1953.99 673.356Z" fill="#8794BA"/>
</g>
</symbol>
<symbol viewBox="0 0 560 399" id="substract-3">
<g opacity="0.07">
<path d="M502.387 -117.35C442.928 -204.094 343.11 -261.001 230 -261.001C47.746 -261.001 -100 -113.255 -100 68.9993C-100 95.5144 -96.8727 121.299 -90.9671 146.005L77.0818 -22.0439C93.191 -38.1531 119.309 -38.1531 135.418 -22.0439L271.25 113.788L502.387 -117.35Z" fill="#8794BA"/>
<path d="M541.609 -39.8988L300.418 201.292C284.309 217.402 258.191 217.402 242.082 201.292L106.25 65.4606L-58.186 229.897C-1.73432 330.792 106.168 398.999 230 398.999C412.254 398.999 560 251.253 560 68.9993C560 30.8407 553.523 -5.80507 541.609 -39.8988Z" fill="#8794BA"/>
</g>
</symbol>

<symbol viewBox="0 0 60 59" id="computer-pink">
<path d="M33 41H27C26.448 41 26 41.448 26 42C26 42.5519 26.448 43 27 43H33C33.5519 43 33.9999 42.5519 33.9999 42C33.9999 41.448 33.5519 41 33 41Z" fill="#EF2A82"/>
<path d="M55.999 1H4.00102C1.79496 1 0 2.79508 0 5.00102V38C0 38.5519 0.448008 38.9999 0.999961 38.9999H58.9999C59.5519 38.9999 59.9999 38.5519 59.9999 38V5.00102C60 2.79508 58.205 1 55.999 1ZM58 37H2.00004V5.00102C2.00004 3.89699 2.89805 3.00004 4.00102 3.00004H55.999C57.102 3.00004 58 3.89699 58 5.00102V37Z" fill="#EF2A82"/>
<path d="M59 36.9999H0.999961C0.448008 36.9999 0 37.448 0 38V42.9989C0 45.2049 1.79496 46.9999 4.00102 46.9999H55.999C58.205 46.9999 60 45.2049 60 42.9989L59.9999 38C59.9999 37.448 59.552 36.9999 59 36.9999ZM58 42.999C58 44.103 57.102 45 55.999 45H4.00102C2.89805 45 2.00004 44.103 2.00004 42.999V39H58.0001L58 42.999Z" fill="#EF2A82"/>
<path d="M54.9999 5.00005H5.00001C4.44806 5.00005 4.00005 5.44806 4.00005 6.00001V38C4.00005 38.552 4.44806 39 5.00001 39H55C55.552 39 56 38.552 56 38V6.00001C56 5.44806 55.552 5.00005 54.9999 5.00005ZM54 37H5.99997V6.99997H54V37Z" fill="#EF2A82"/>
<path d="M42.9999 53.0001H17C15.346 53.0001 14 54.3461 14 56.0001C14 57.6541 15.346 59.0001 17 59.0001H43C44.654 59.0001 46 57.6541 46 56.0001C46 54.3461 44.6539 53.0001 42.9999 53.0001ZM42.9999 57H17C16.4481 57 16 56.5511 16 56.0001C16 55.4491 16.4481 55.0001 17 55.0001H43C43.552 55.0001 44 55.4491 44 56.0001C44 56.5511 43.552 57 42.9999 57Z" fill="#EF2A82"/>
<path d="M41 53.0001C37.6819 53.0001 35.9999 50.6451 35.9999 46.0001C35.9999 45.4482 35.5519 45.0001 35 45.0001H25C24.4481 45.0001 24 45.4482 24 46.0001C24 50.6451 22.3181 53.0001 19 53.0001C18.4481 53.0001 18 53.4481 18 54C18 54.552 18.4481 55 19 55H41C41.5519 55 41.9999 54.552 41.9999 54C41.9999 53.4481 41.5519 53.0001 41 53.0001ZM23.8709 53.0001C25.102 51.6361 25.8269 49.605 25.9729 47.0001H34.0279C34.1729 49.605 34.8979 51.6361 36.1299 53.0001H23.8709Z" fill="#EF2A82"/>
<path d="M47.784 30.464L45.37 28.05L46.713 26.707C46.962 26.458 47.062 26.096 46.976 25.755C46.8899 25.414 46.631 25.144 46.2939 25.042L36.294 22.042C35.941 21.936 35.56 22.033 35.3 22.2931C35.039 22.5531 34.943 22.935 35.049 23.287L38.049 33.287C38.15 33.625 38.4209 33.884 38.7619 33.97C39.1019 34.054 39.4649 33.9559 39.714 33.707L41.128 32.292L43.5419 34.707C43.7289 34.8949 43.9839 34.9999 44.2489 34.9999C44.5138 34.9999 44.7688 34.8949 44.9559 34.707L47.7838 31.8779C48.1749 31.487 48.1749 30.855 47.784 30.464ZM44.2489 32.586L42.0509 30.387C41.7959 30.132 41.4619 30.0049 41.128 30.0049C40.7929 30.0049 40.4589 30.1329 40.205 30.3859L39.483 31.1079L37.498 24.4909L44.1149 26.4759L43.3409 27.25C43.1279 27.464 43.0109 27.748 43.0109 28.05C43.0109 28.3531 43.1289 28.639 43.3429 28.851L45.6629 31.1709L44.2489 32.586Z" fill="#EF2A82"/>
<path d="M41.9999 8.99997H14C13.448 8.99997 13 9.44798 13 9.99993V15C13 15.5519 13.448 15.9999 14 15.9999H41.9999C42.5519 15.9999 42.9999 15.5519 42.9999 15V9.99993C42.9999 9.44798 42.5519 8.99997 41.9999 8.99997ZM41 14H14.9999V11H41V14Z" fill="#EF2A82"/>
<path d="M26.0001 20.0001H18.0001C17.4481 20.0001 17.0001 20.4481 17.0001 21V25C17.0001 25.5519 17.4481 25.9999 18.0001 25.9999H26.0001C26.5521 25.9999 27.0001 25.5519 27.0001 25V21C27.0001 20.4481 26.5521 20.0001 26.0001 20.0001ZM25.0001 24H19.0001V22H25.0001V24Z" fill="#EF2A82"/>
<path d="M41.9999 8.99997H14C13.448 8.99997 13 9.44798 13 9.99993V28.9999C13 29.5518 13.448 29.9999 14 29.9999H37.806C38.123 29.9999 38.42 29.8509 38.608 29.5968C38.7971 29.3429 38.8551 29.0149 38.764 28.7118L37.498 24.4909L41.713 25.7559C42.0161 25.847 42.3441 25.789 42.597 25.5999C42.8509 25.412 43 25.114 43 24.7979L42.9999 9.99993C42.9999 9.44798 42.5519 8.99997 41.9999 8.99997ZM41 23.454L36.2929 22.042C35.9399 21.9359 35.5589 22.033 35.2989 22.293C35.0379 22.554 34.942 22.935 35.0479 23.2881L36.4619 28H14.9999V11H41V23.454Z" fill="#EF2A82"/>
</symbol><symbol viewBox="0 0 60 60" id="time-pink">
<g clip-path="url(#clip0_335_18)">
<path d="M47.2478 6.71074C42.2337 2.99684 36.2834 1.03453 30.0402 1.03453C24.3475 1.03453 18.6919 2.67316 14.4826 5.48484V1.03453C14.4826 0.463477 14.0192 0 13.4481 0C12.8771 0 12.4136 0.463477 12.4136 1.03453V7.54242C12.4136 7.94379 12.6453 8.30895 13.0084 8.47863C13.3715 8.64937 13.8008 8.59453 14.1092 8.33789C18.0546 5.06063 24.0102 3.10336 30.0402 3.10336C35.8364 3.10336 41.3605 4.92609 46.0167 8.3741C46.2019 8.51062 46.4171 8.57684 46.6313 8.57684C46.9478 8.57684 47.2602 8.43199 47.463 8.15789C47.8034 7.69863 47.7072 7.05105 47.2478 6.71074Z" fill="#EF2A82"/>
<path d="M58.9654 12.4138H52.4575C52.0562 12.4138 51.693 12.6465 51.5224 13.0097C51.3516 13.3727 51.4065 13.8021 51.6631 14.1104C54.9404 18.0549 56.8976 24.0104 56.8976 30.0415C56.8976 35.8377 55.0749 41.3618 51.6269 46.0169C51.2866 46.4762 51.3828 47.1238 51.8421 47.4642C52.0272 47.6007 52.2424 47.6669 52.4566 47.6669C52.7731 47.6669 53.0855 47.5221 53.2893 47.248C57.0031 42.2339 58.9655 36.2834 58.9655 30.0404C58.9655 24.3477 57.3269 18.6911 54.5152 14.4828H58.9655C59.5366 14.4828 60.0001 14.0193 60.0001 13.4483C59.9999 12.8772 59.5365 12.4138 58.9654 12.4138Z" fill="#EF2A82"/>
<path d="M46.9925 51.5224C46.6295 51.3527 46.2012 51.4055 45.8918 51.6632C41.9463 54.9404 35.9907 56.8977 29.9607 56.8977C24.1635 56.8977 18.6394 55.075 13.9842 51.627C13.5249 51.2866 12.8774 51.3829 12.5369 51.8421C12.1966 52.3014 12.2928 52.949 12.7521 53.2894C17.7662 57.0032 23.7166 58.9656 29.9597 58.9656C35.6524 58.9656 41.308 57.327 45.5172 54.5153V58.9656C45.5172 59.5366 45.9807 60.0001 46.5518 60.0001C47.1228 60.0001 47.5863 59.5366 47.5863 58.9656V52.4577C47.5863 52.0562 47.3546 51.6911 46.9925 51.5224Z" fill="#EF2A82"/>
<path d="M8.33789 45.8907C5.06063 41.9453 3.10336 35.9907 3.10336 29.9597C3.10336 24.1635 4.92609 18.6394 8.37305 13.9842C8.71336 13.5249 8.61715 12.8774 8.15789 12.5369C7.69863 12.1956 7.05105 12.2928 6.71062 12.7521C2.99684 17.7662 1.03453 23.7165 1.03453 29.9597C1.03453 35.6524 2.67316 41.308 5.48484 45.5172H1.03453C0.463477 45.5172 0 45.9807 0 46.5518C0 47.1228 0.463477 47.5863 1.03453 47.5863H7.54242C7.94379 47.5863 8.30789 47.3546 8.47863 46.9915C8.64937 46.6283 8.59453 46.1989 8.33789 45.8907Z" fill="#EF2A82"/>
<path d="M31.0345 19.6531C31.0335 19.082 30.57 18.6206 30 18.6206C30 18.6206 29.9989 18.6206 29.9979 18.6206C29.4258 18.6217 28.9644 19.0861 28.9655 19.6572L28.9903 30.002C28.9914 30.5731 29.4548 31.0344 30.0248 31.0344C30.0259 31.0344 30.0269 31.0344 30.0269 31.0344C30.5991 31.0334 31.0604 30.569 31.0594 29.9979L31.0345 19.6531Z" fill="#EF2A82"/>
<path d="M30.0248 28.9655H23.7931C23.222 28.9655 22.7585 29.4289 22.7585 30C22.7585 30.571 23.222 31.0345 23.7931 31.0345H30.0248C30.5958 31.0345 31.0593 30.571 31.0593 30C31.0593 29.4289 30.5958 28.9655 30.0248 28.9655Z" fill="#EF2A82"/>
<path d="M30 8.27594C18.0217 8.27594 8.27588 18.0208 8.27588 30C8.27588 41.9793 18.0217 51.7241 30 51.7241C41.9792 51.7241 51.7241 41.9793 51.7241 30C51.7241 18.0208 41.9792 8.27594 30 8.27594ZM30 49.6552C19.1617 49.6552 10.3448 40.8384 10.3448 30C10.3448 19.1617 19.1617 10.3449 30 10.3449C40.8383 10.3449 49.6551 19.1617 49.6551 30C49.6551 40.8384 40.8383 49.6552 30 49.6552Z" fill="#EF2A82"/>
<path d="M15.5173 28.9655H13.4484C12.8773 28.9655 12.4138 29.4289 12.4138 30C12.4138 30.571 12.8773 31.0345 13.4484 31.0345H15.5173C16.0884 31.0345 16.5518 30.571 16.5518 30C16.5518 29.4289 16.0884 28.9655 15.5173 28.9655Z" fill="#EF2A82"/>
<path d="M46.5516 28.9655H44.4827C43.9116 28.9655 43.4481 29.4289 43.4481 30C43.4481 30.571 43.9116 31.0345 44.4827 31.0345H46.5516C47.1227 31.0345 47.5861 30.571 47.5861 30C47.5861 29.4289 47.1227 28.9655 46.5516 28.9655Z" fill="#EF2A82"/>
<path d="M30 43.4483C29.4289 43.4483 28.9655 43.9118 28.9655 44.4828V46.5518C28.9655 47.1228 29.4289 47.5863 30 47.5863C30.571 47.5863 31.0345 47.1228 31.0345 46.5518V44.4828C31.0345 43.9117 30.571 43.4483 30 43.4483Z" fill="#EF2A82"/>
<path d="M30 12.4138C29.4289 12.4138 28.9655 12.8772 28.9655 13.4483V15.5172C28.9655 16.0883 29.4289 16.5518 30 16.5518C30.571 16.5518 31.0345 16.0883 31.0345 15.5172V13.4483C31.0345 12.8772 30.571 12.4138 30 12.4138Z" fill="#EF2A82"/>
<path d="M20.3866 39.6135C19.9831 39.2089 19.3282 39.2089 18.9238 39.6135L17.5646 40.9718C17.1611 41.3753 17.1611 42.0301 17.5646 42.4345C17.7662 42.6362 18.0311 42.7376 18.2959 42.7376C18.5608 42.7376 18.8256 42.6373 19.0273 42.4345L20.3866 41.0762C20.79 40.6727 20.79 40.0179 20.3866 39.6135Z" fill="#EF2A82"/>
<path d="M42.4345 17.5655C42.03 17.161 41.3762 17.161 40.9718 17.5655L39.6135 18.9238C39.2089 19.3283 39.2089 19.9821 39.6135 20.3865C39.8151 20.5882 40.08 20.6896 40.3448 20.6896C40.6097 20.6896 40.8745 20.5882 41.0762 20.3865L42.4345 19.0282C42.8389 18.6238 42.8389 17.97 42.4345 17.5655Z" fill="#EF2A82"/>
<path d="M42.4345 40.9717L41.0762 39.6134C40.6717 39.2088 40.0179 39.2088 39.6135 39.6134C39.2089 40.0179 39.2089 40.6717 39.6135 41.0761L40.9718 42.4344C41.1735 42.6361 41.4383 42.7375 41.7031 42.7375C41.968 42.7375 42.2328 42.6372 42.4345 42.4344C42.8389 42.03 42.8389 41.3762 42.4345 40.9717Z" fill="#EF2A82"/>
<path d="M20.3865 18.9238L19.0272 17.5655C18.6238 17.161 17.9689 17.161 17.5645 17.5655C17.16 17.97 17.16 18.6247 17.5645 19.0282L18.9238 20.3865C19.1254 20.5882 19.3903 20.6896 19.6551 20.6896C19.92 20.6896 20.1848 20.5882 20.3865 20.3865C20.791 19.9821 20.791 19.3273 20.3865 18.9238Z" fill="#EF2A82"/>
</g>
<defs>
<clipPath id="clip0_335_18">
<rect width="60" height="60" fill="white"/>
</clipPath>
</defs>
</symbol><symbol viewBox="0 0 170.08133 40" id="logo-nav">
<path d="M36.5083 8.70613C32.9048 3.44887 26.8551 0 20 0C8.9543 0 0 8.9543 0 20C0 21.607 0.189533 23.1697 0.547447 24.667L10.7322 14.4822C11.7085 13.5059 13.2915 13.5059 14.2678 14.4822L22.5 22.7145L36.5083 8.70613Z" fill="#EF2A82"/>
<path d="M38.8854 13.4001L24.2678 28.0178C23.2915 28.9941 21.7085 28.9941 20.7322 28.0178L12.5 19.7855L2.53418 29.7514C5.9555 35.8662 12.495 40 20 40C31.0457 40 40 31.0457 40 20C40 17.6874 39.6075 15.4664 38.8854 13.4001Z" fill="#EF2A82"/>
<path d="M62.8084 25.056H57.6023L56.6931 28H52.6343L58.4141 12.2408H61.9858L67.8089 28H63.7284L62.8084 25.056ZM58.5115 22.1228H61.8992L60.2 16.6569L58.5115 22.1228Z" fill="white"/>
<path d="M82.1285 28H78.3511L72.7661 18.1938V28H68.967V12.2408H72.7661L78.3402 22.047V12.2408H82.1285V28Z" fill="white"/>
<path d="M93.6772 25.056H88.4711L87.5619 28H83.5031L89.2829 12.2408H92.8546L98.6777 28H94.5972L93.6772 25.056ZM89.3803 22.1228H92.7681L91.0688 16.6569L89.3803 22.1228Z" fill="white"/>
<path d="M103.635 25.0776H110.248V28H99.8358V12.2408H103.635V25.0776Z" fill="white"/>
<path d="M114.588 19.0813L117.489 12.2408H121.591L116.515 22.3392V28H112.662V22.3392L107.596 12.2408H111.677L114.588 19.0813Z" fill="white"/>
<path d="M135.305 15.174H130.575V28H126.776V15.174H122.132V12.2408H135.305V15.174Z" fill="white"/>
<path d="M140.965 28H137.177V12.2408H140.965V28Z" fill="white"/>
<path d="M156.357 22.6639C156.306 23.7607 156.01 24.7312 155.469 25.5755C154.928 26.4125 154.167 27.0619 153.185 27.5237C152.211 27.9855 151.096 28.2164 149.841 28.2164C147.77 28.2164 146.139 27.5418 144.948 26.1924C143.758 24.8431 143.163 22.9381 143.163 20.4776V19.6983C143.163 18.1541 143.43 16.8048 143.964 15.6503C144.505 14.4885 145.28 13.5938 146.291 12.966C147.301 12.331 148.47 12.0135 149.797 12.0135C151.71 12.0135 153.247 12.5186 154.408 13.5288C155.57 14.5318 156.23 15.9173 156.389 17.6851H152.601C152.572 16.7254 152.33 16.0363 151.876 15.6178C151.421 15.1993 150.728 14.99 149.797 14.99C148.852 14.99 148.159 15.3436 147.719 16.0507C147.279 16.7579 147.048 17.8871 147.027 19.4385V20.5533C147.027 22.2346 147.236 23.436 147.654 24.1576C148.08 24.8792 148.809 25.24 149.841 25.24C150.714 25.24 151.381 25.0343 151.843 24.623C152.305 24.2117 152.55 23.5587 152.579 22.6639H156.357Z" fill="white"/>
<path d="M166.282 23.8112C166.282 23.2556 166.083 22.8227 165.686 22.5124C165.297 22.2021 164.608 21.881 163.619 21.5491C162.631 21.2172 161.822 20.8961 161.195 20.5858C159.153 19.5828 158.132 18.2046 158.132 16.4512C158.132 15.5781 158.384 14.8096 158.889 14.1458C159.402 13.4747 160.123 12.9552 161.054 12.5872C161.985 12.212 163.031 12.0244 164.193 12.0244C165.326 12.0244 166.339 12.2264 167.234 12.6305C168.136 13.0346 168.836 13.6118 169.334 14.3623C169.832 15.1055 170.081 15.9569 170.081 16.9166H166.293C166.293 16.2744 166.094 15.7765 165.697 15.423C165.308 15.0694 164.777 14.8926 164.106 14.8926C163.428 14.8926 162.89 15.0441 162.493 15.3472C162.104 15.6431 161.909 16.0219 161.909 16.4837C161.909 16.8878 162.125 17.2558 162.558 17.5877C162.991 17.9124 163.753 18.2515 164.842 18.6051C165.932 18.9515 166.827 19.3267 167.526 19.7308C169.229 20.7121 170.081 22.065 170.081 23.7896C170.081 25.1678 169.561 26.2502 168.522 27.0367C167.483 27.8232 166.058 28.2164 164.247 28.2164C162.97 28.2164 161.812 27.9891 160.773 27.5345C159.741 27.0727 158.961 26.445 158.435 25.6512C157.915 24.8503 157.655 23.9303 157.655 22.8912H161.465C161.465 23.7355 161.682 24.3596 162.115 24.7637C162.555 25.1606 163.266 25.359 164.247 25.359C164.875 25.359 165.369 25.2255 165.73 24.9585C166.098 24.6843 166.282 24.3019 166.282 23.8112Z" fill="white"/>
</symbol><symbol viewBox="0 0 255.12134 60" id="logo-footer">
<path d="M54.7625 13.0592C49.3571 5.1733 40.2827 0 30 0C13.4315 0 0 13.4314 0 30C0 32.4105 0.2843 34.7545 0.821171 37.0005L16.0983 21.7233C17.5628 20.2589 19.9372 20.2589 21.4017 21.7233L33.75 34.0717L54.7625 13.0592Z" fill="#8794BA"/>
<path d="M58.3281 20.1002L36.4017 42.0267C34.9372 43.4911 32.5628 43.4911 31.0983 42.0267L18.75 29.6783L3.80127 44.627C8.93324 53.7993 18.7425 60 30 60C46.5686 60 60 46.5686 60 30C60 26.531 59.4112 23.1996 58.3281 20.1002Z" fill="#8794BA"/>
<path d="M94.2124 37.584H86.4032L85.0394 42H78.9512L87.6208 18.3613H92.9785L101.713 42H95.5924L94.2124 37.584ZM87.767 33.1842H92.8486L90.2997 24.9854L87.767 33.1842Z" fill="#8794BA"/>
<path d="M123.193 42H117.526L109.149 27.2908V42H103.45V18.3613H109.149L117.51 33.0706V18.3613H123.193V42Z" fill="#8794BA"/>
<path d="M140.516 37.584H132.706L131.343 42H125.254L133.924 18.3613H139.282L148.016 42H141.896L140.516 37.584ZM134.07 33.1842H139.152L136.603 24.9854L134.07 33.1842Z" fill="#8794BA"/>
<path d="M155.452 37.6165H165.372V42H149.754V18.3613H155.452V37.6165Z" fill="#8794BA"/>
<path d="M171.882 28.6221L176.233 18.3613H182.387L174.772 33.5089V42H168.992V33.5089L161.394 18.3613H167.515L171.882 28.6221Z" fill="#8794BA"/>
<path d="M202.957 22.7611H195.862V42H190.163V22.7611H183.198V18.3613H202.957V22.7611Z" fill="#8794BA"/>
<path d="M211.448 42H205.766V18.3613H211.448V42Z" fill="#8794BA"/>
<path d="M234.535 33.996C234.459 35.6412 234.015 37.0969 233.203 38.3633C232.391 39.6188 231.25 40.5929 229.778 41.2856C228.316 41.9784 226.644 42.3247 224.761 42.3247C221.654 42.3247 219.208 41.3127 217.422 39.2887C215.637 37.2647 214.744 34.4073 214.744 30.7164V29.5475C214.744 27.2312 215.144 25.2072 215.945 23.4755C216.757 21.7329 217.92 20.3907 219.436 19.4491C220.951 18.4966 222.704 18.0204 224.696 18.0204C227.564 18.0204 229.87 18.778 231.612 20.2933C233.355 21.7978 234.345 23.8759 234.583 26.5277H228.901C228.858 25.0882 228.495 24.0545 227.813 23.4268C227.131 22.799 226.092 22.4851 224.696 22.4851C223.278 22.4851 222.239 23.0155 221.579 24.0762C220.919 25.1369 220.572 26.8308 220.54 29.1578V30.8301C220.54 33.352 220.854 35.1541 221.481 36.2365C222.12 37.3188 223.213 37.86 224.761 37.86C226.071 37.86 227.072 37.5515 227.764 36.9346C228.457 36.3176 228.825 35.3381 228.868 33.996H234.535Z" fill="#8794BA"/>
<path d="M249.422 35.7169C249.422 34.8835 249.125 34.2341 248.529 33.7687C247.945 33.3033 246.911 32.8216 245.428 32.3237C243.946 31.8258 242.733 31.3442 241.792 30.8788C238.729 29.3743 237.197 27.307 237.197 24.6769C237.197 23.3672 237.576 22.2145 238.334 21.2188C239.102 20.2122 240.184 19.4329 241.581 18.8809C242.977 18.318 244.546 18.0366 246.289 18.0366C247.988 18.0366 249.509 18.3397 250.851 18.9458C252.204 19.5519 253.254 20.4178 254.001 21.5435C254.748 22.6583 255.121 23.9355 255.121 25.375H249.439C249.439 24.4117 249.141 23.6649 248.546 23.1345C247.961 22.6042 247.166 22.339 246.159 22.339C245.142 22.339 244.335 22.5663 243.74 23.0209C243.156 23.4646 242.863 24.0329 242.863 24.7256C242.863 25.3317 243.188 25.8837 243.837 26.3816C244.487 26.8687 245.629 27.3774 247.263 27.9077C248.897 28.4272 250.24 28.9901 251.289 29.5962C253.844 31.0682 255.121 33.0976 255.121 35.6844C255.121 37.7517 254.342 39.3753 252.783 40.5551C251.224 41.7348 249.087 42.3247 246.37 42.3247C244.454 42.3247 242.717 41.9838 241.159 41.3019C239.611 40.6092 238.442 39.6675 237.652 38.4769C236.872 37.2755 236.483 35.8955 236.483 34.3369H242.198C242.198 35.6033 242.522 36.5395 243.172 37.1456C243.832 37.7409 244.898 38.0386 246.37 38.0386C247.312 38.0386 248.053 37.8383 248.594 37.4379C249.146 37.0266 249.422 36.4529 249.422 35.7169Z" fill="#8794BA"/>
</symbol><symbol viewBox="0 0 59.999767 59.99867" id="rocket-white">
<g clip-path="url(#clip0_335_8)">
<path d="M19.0635 23.3911C18.9035 23.0772 18.5905 22.8711 18.2395 22.8482L9.8272 22.2872C9.39127 22.2442 8.98826 22.5142 8.82924 22.9201L2.76473 38.419C2.60172 38.835 2.73473 39.3079 3.09074 39.5789C3.26875 39.7148 3.48273 39.7829 3.69566 39.7829C3.90659 39.7829 4.11765 39.7169 4.29565 39.583L9.32928 35.8083L12.2601 36.3942C12.7381 36.4893 13.216 36.2272 13.39 35.7703C14.9639 31.6476 16.8587 27.8139 19.0195 24.3772C19.2066 24.079 19.2236 23.704 19.0635 23.3911ZM11.828 34.2682L9.28228 33.7593C9.00432 33.7043 8.71428 33.7703 8.48635 33.9402L5.90755 35.874L10.4241 24.3309L16.4617 24.7329C14.7218 27.6778 13.1679 30.8754 11.828 34.2682Z" fill="white"/>
<path d="M37.713 50.174L37.152 41.7606C37.128 41.4086 36.922 41.0957 36.6081 40.9356C36.2951 40.7757 35.9201 40.7916 35.6222 40.9796C32.1844 43.1404 28.3517 45.0353 24.2291 46.6091C23.7731 46.7821 23.5091 47.2601 23.6052 47.739L24.1911 50.6698L20.4164 55.7024C20.1484 56.0604 20.1495 56.5524 20.4204 56.9084C20.6134 57.1623 20.9104 57.3033 21.2163 57.3033C21.3383 57.3033 21.4614 57.2803 21.5813 57.2363L37.0801 51.1717C37.486 51.013 37.742 50.6089 37.713 50.174ZM24.125 54.0907L26.0588 51.5119C26.2289 51.2849 26.2948 50.995 26.2388 50.716L25.7299 48.1712C29.1236 46.8313 32.3203 45.2774 35.2651 43.5375L35.6681 49.574L24.125 54.0907Z" fill="white"/>
<path d="M28.9978 30.0006H22.2603C21.8974 30.0006 21.5634 30.1976 21.3863 30.5146L12.9299 45.7094C12.71 46.1054 12.7839 46.6013 13.1099 46.9154C13.301 47.0994 13.5519 47.1954 13.8039 47.1954C13.9819 47.1954 14.1609 47.1484 14.3208 47.0504L29.5157 37.8551C29.8146 37.6742 29.9977 37.3502 29.9977 37.0003V31.0006C29.9978 30.4486 29.5498 30.0006 28.9978 30.0006ZM27.998 36.4372L16.5099 43.3896L22.8474 32.0015V32.0004H27.998V36.4372Z" fill="white"/>
<path d="M59.9493 0.96377C59.9083 0.476861 59.5224 0.0908489 59.0354 0.0498337C58.7034 0.0238183 25.775 -2.27503 11.5221 35.0562C11.3811 35.4252 11.47 35.8411 11.7491 36.1201L16.5037 40.8747C16.7267 41.0978 17.0386 41.1997 17.3516 41.1577C17.6626 41.1128 17.9346 40.9248 18.0866 40.6497L22.8503 32.0005H27.9979V36.4491L19.2966 41.9427C19.0396 42.1057 18.8706 42.3757 18.8366 42.6777C18.8026 42.9796 18.9086 43.2806 19.1236 43.4956L23.8782 48.2502C24.0692 48.4412 24.3242 48.5432 24.5852 48.5432C24.7052 48.5432 24.8261 48.5222 24.9421 48.4772C62.2751 34.2232 59.9773 1.29482 59.9493 0.96377ZM54.7037 18.7045C51.1949 27.3858 43.1656 39.188 24.832 46.3764L21.4222 42.9666L29.5316 37.847C29.8216 37.663 29.9976 37.344 29.9976 37.001V31.0014C29.9976 30.4495 29.5496 30.0015 28.9976 30.0015H22.2581C21.8932 30.0015 21.5582 30.2005 21.3821 30.5195L16.9755 38.5208L13.6228 35.1671C26.1349 3.24761 52.8048 1.94169 57.9894 2.0147C58.0264 4.34659 57.8125 11.012 54.7037 18.7045Z" fill="white"/>
<path d="M17.1287 44.1645C16.9116 43.8766 16.5657 43.7366 16.2267 43.7725C16.2617 43.4326 16.1217 43.0876 15.8347 42.8706C14.3269 41.7307 12.381 41.3517 10.4942 41.8296C8.49133 42.3385 6.85342 43.7044 6.00147 45.5793L0.0900048 58.5854C-0.0829623 58.9653 -0.00198652 59.4123 0.292972 59.7062C0.483985 59.8982 0.73992 59.9992 0.999957 59.9992C1.13999 59.9992 1.28097 59.9692 1.41398 59.9092L14.42 53.9967C16.2938 53.1458 17.6598 51.5079 18.1687 49.5051C18.6476 47.6202 18.2687 45.6734 17.1287 44.1645ZM16.2308 49.0131C15.8728 50.424 14.9109 51.5769 13.593 52.1769L3.0138 56.9855L7.82243 46.4054C8.42137 45.0875 9.5753 44.1255 10.9862 43.7676C11.3572 43.6736 11.7301 43.6276 12.0981 43.6276C12.7211 43.6276 13.33 43.7606 13.8849 44.0196L12.933 45.7045C12.712 46.0954 12.7791 46.5864 13.097 46.9034C13.4149 47.2224 13.9059 47.2884 14.2959 47.0673L15.9808 46.1144C16.3907 46.9963 16.4838 48.0151 16.2308 49.0131Z" fill="white"/>
<path d="M59.9493 0.964767C59.9083 0.477857 59.5222 0.0918456 59.0353 0.0508304C58.6453 0.019776 49.376 -0.682171 38.4749 4.3395C38.1779 4.47544 37.9669 4.74942 37.9088 5.07144C37.8508 5.39347 37.9549 5.72335 38.1859 5.95433L54.0447 21.8132C54.2337 22.0022 54.4887 22.1061 54.7517 22.1061C54.8106 22.1061 54.8697 22.1011 54.9287 22.0911C55.2507 22.0331 55.5236 21.8222 55.6606 21.5251C60.6832 10.624 59.9813 1.35371 59.9493 0.964767ZM54.4277 19.3663L40.6327 5.57136C48.6131 2.20261 55.6015 1.97058 57.9904 2.01065C58.0303 4.40149 57.8053 11.368 54.4277 19.3663Z" fill="white"/>
<path d="M44.1605 15.8387C40.7977 12.476 35.3272 12.476 31.9645 15.8387C28.6017 19.2015 28.6017 24.672 31.9645 28.0348C33.6454 29.7166 35.8542 30.5566 38.062 30.5566C40.2709 30.5566 42.4787 29.7157 44.1605 28.0348C47.5233 24.672 47.5233 19.2014 44.1605 15.8387ZM42.7467 26.6208C40.1639 29.2036 35.9612 29.2036 33.3784 26.6208C30.7957 24.038 30.7957 19.8354 33.3784 17.2526C34.6694 15.9617 36.3662 15.3157 38.0621 15.3157C39.7581 15.3157 41.4549 15.9617 42.7468 17.2526C45.3295 19.8354 45.3295 24.038 42.7467 26.6208Z" fill="white"/>
<path d="M40.05 23.925C38.954 25.0229 37.1702 25.0219 36.0732 23.925C34.9773 22.8281 34.9773 21.0453 36.0732 19.9483C37.1692 18.8523 38.953 18.8514 40.05 19.9483C40.44 20.3392 41.0739 20.3392 41.4638 19.9483C41.8547 19.5573 41.8547 18.9253 41.4638 18.5344C39.5889 16.6586 36.5352 16.6586 34.6594 18.5344C32.7835 20.4102 32.7835 23.463 34.6594 25.3388C35.5973 26.2768 36.8303 26.7458 38.0621 26.7458C39.295 26.7458 40.5269 26.2768 41.4638 25.3388C41.8547 24.9479 41.8547 24.3159 41.4638 23.925C41.0738 23.5341 40.44 23.5341 40.05 23.925Z" fill="white"/>
</g>
<defs>
<clipPath id="clip0_335_8">
<rect width="60" height="60" fill="white"/>
</clipPath>
</defs>
</symbol><symbol viewBox="0 0 60 60" id="time-white">
<g clip-path="url(#clip0_335_9)">
<path d="M47.2478 6.71074C42.2337 2.99684 36.2834 1.03453 30.0402 1.03453C24.3475 1.03453 18.6919 2.67316 14.4826 5.48484V1.03453C14.4826 0.463477 14.0192 0 13.4481 0C12.8771 0 12.4136 0.463477 12.4136 1.03453V7.54242C12.4136 7.94379 12.6453 8.30894 13.0084 8.47863C13.3715 8.64937 13.8008 8.59453 14.1092 8.33789C18.0546 5.06063 24.0102 3.10336 30.0402 3.10336C35.8364 3.10336 41.3605 4.92609 46.0167 8.3741C46.2019 8.51062 46.417 8.57684 46.6313 8.57684C46.9478 8.57684 47.2602 8.43199 47.463 8.15789C47.8034 7.69863 47.7072 7.05105 47.2478 6.71074Z" fill="white"/>
<path d="M58.9654 12.4138H52.4575C52.0562 12.4138 51.693 12.6466 51.5224 13.0097C51.3516 13.3728 51.4065 13.8021 51.6631 14.1105C54.9404 18.055 56.8976 24.0105 56.8976 30.0415C56.8976 35.8377 55.0749 41.3618 51.6269 46.017C51.2866 46.4762 51.3828 47.1238 51.8421 47.4643C52.0272 47.6008 52.2424 47.667 52.4566 47.667C52.7731 47.667 53.0855 47.5221 53.2893 47.248C57.0031 42.2339 58.9655 36.2835 58.9655 30.0405C58.9655 24.3477 57.3269 18.6912 54.5152 14.4829H58.9655C59.5366 14.4829 60.0001 14.0194 60.0001 13.4484C59.9999 12.8773 59.5365 12.4138 58.9654 12.4138Z" fill="white"/>
<path d="M46.9926 51.5224C46.6296 51.3527 46.2013 51.4054 45.8919 51.6631C41.9464 54.9404 35.9908 56.8976 29.9608 56.8976C24.1636 56.8976 18.6395 55.0749 13.9843 51.6269C13.5251 51.2866 12.8775 51.3828 12.5371 51.8421C12.1967 52.3013 12.293 52.9489 12.7522 53.2893C17.7663 57.0031 23.7167 58.9655 29.9598 58.9655C35.6525 58.9655 41.3081 57.3269 45.5174 54.5152V58.9655C45.5174 59.5366 45.9808 60.0001 46.5519 60.0001C47.123 60.0001 47.5864 59.5366 47.5864 58.9655V52.4576C47.5864 52.0562 47.3548 51.691 46.9926 51.5224Z" fill="white"/>
<path d="M8.33789 45.8907C5.06063 41.9452 3.10336 35.9907 3.10336 29.9596C3.10336 24.1634 4.92609 18.6393 8.37305 13.9842C8.71336 13.5249 8.61715 12.8773 8.15789 12.5369C7.69863 12.1955 7.05105 12.2928 6.71063 12.7521C2.99684 17.7662 1.03453 23.7165 1.03453 29.9596C1.03453 35.6524 2.67316 41.308 5.48484 45.5172H1.03453C0.463477 45.5172 0 45.9807 0 46.5518C0 47.1228 0.463477 47.5863 1.03453 47.5863H7.54242C7.94379 47.5863 8.30789 47.3546 8.47863 46.9914C8.64937 46.6283 8.59453 46.1989 8.33789 45.8907Z" fill="white"/>
<path d="M31.0344 19.653C31.0333 19.082 30.5699 18.6206 29.9999 18.6206C29.9999 18.6206 29.9988 18.6206 29.9978 18.6206C29.4256 18.6217 28.9643 19.0861 28.9653 19.6571L28.9902 30.002C28.9912 30.573 29.4547 31.0344 30.0247 31.0344C30.0258 31.0344 30.0268 31.0344 30.0268 31.0344C30.5989 31.0333 31.0603 30.5689 31.0592 29.9979L31.0344 19.653Z" fill="white"/>
<path d="M30.025 28.9655H23.7933C23.2223 28.9655 22.7588 29.4289 22.7588 30C22.7588 30.571 23.2223 31.0345 23.7933 31.0345H30.025C30.5961 31.0345 31.0595 30.571 31.0595 30C31.0595 29.4289 30.5961 28.9655 30.025 28.9655Z" fill="white"/>
<path d="M30 8.27588C18.0217 8.27588 8.27588 18.0207 8.27588 30C8.27588 41.9792 18.0217 51.7241 30 51.7241C41.9792 51.7241 51.7241 41.9792 51.7241 30C51.7241 18.0207 41.9792 8.27588 30 8.27588ZM30 49.6551C19.1617 49.6551 10.3448 40.8383 10.3448 30C10.3448 19.1617 19.1617 10.3448 30 10.3448C40.8383 10.3448 49.6551 19.1617 49.6551 30C49.6551 40.8383 40.8383 49.6551 30 49.6551Z" fill="white"/>
<path d="M15.5171 28.9655H13.4481C12.8771 28.9655 12.4136 29.4289 12.4136 30C12.4136 30.571 12.8771 31.0345 13.4481 31.0345H15.5171C16.0881 31.0345 16.5516 30.571 16.5516 30C16.5516 29.4289 16.0881 28.9655 15.5171 28.9655Z" fill="white"/>
<path d="M46.5517 28.9655H44.4828C43.9117 28.9655 43.4482 29.4289 43.4482 30C43.4482 30.571 43.9117 31.0345 44.4828 31.0345H46.5517C47.1228 31.0345 47.5863 30.571 47.5863 30C47.5863 29.4289 47.1228 28.9655 46.5517 28.9655Z" fill="white"/>
<path d="M29.9999 43.4482C29.4288 43.4482 28.9653 43.9117 28.9653 44.4828V46.5517C28.9653 47.1228 29.4288 47.5863 29.9999 47.5863C30.5709 47.5863 31.0344 47.1228 31.0344 46.5517V44.4828C31.0344 43.9116 30.5709 43.4482 29.9999 43.4482Z" fill="white"/>
<path d="M29.9999 12.4138C29.4288 12.4138 28.9653 12.8773 28.9653 13.4484V15.5173C28.9653 16.0884 29.4288 16.5518 29.9999 16.5518C30.5709 16.5518 31.0344 16.0884 31.0344 15.5173V13.4484C31.0344 12.8773 30.5709 12.4138 29.9999 12.4138Z" fill="white"/>
<path d="M20.3863 39.6135C19.9828 39.2089 19.328 39.2089 18.9236 39.6135L17.5643 40.9718C17.1608 41.3753 17.1608 42.0301 17.5643 42.4345C17.766 42.6362 18.0308 42.7376 18.2957 42.7376C18.5605 42.7376 18.8254 42.6373 19.0271 42.4345L20.3863 41.0762C20.7898 40.6727 20.7898 40.0179 20.3863 39.6135Z" fill="white"/>
<path d="M42.4345 17.5655C42.03 17.161 41.3762 17.161 40.9718 17.5655L39.6135 18.9238C39.2089 19.3283 39.2089 19.9821 39.6135 20.3865C39.8151 20.5882 40.08 20.6896 40.3448 20.6896C40.6097 20.6896 40.8745 20.5882 41.0762 20.3865L42.4345 19.0282C42.8389 18.6238 42.8389 17.97 42.4345 17.5655Z" fill="white"/>
<path d="M42.4345 40.9717L41.0762 39.6133C40.6717 39.2088 40.0179 39.2088 39.6135 39.6133C39.2089 40.0179 39.2089 40.6717 39.6135 41.0761L40.9718 42.4344C41.1735 42.6361 41.4383 42.7374 41.7031 42.7374C41.968 42.7374 42.2328 42.6371 42.4345 42.4344C42.8389 42.03 42.8389 41.3762 42.4345 40.9717Z" fill="white"/>
<path d="M20.3866 18.9238L19.0274 17.5655C18.6239 17.161 17.969 17.161 17.5646 17.5655C17.1601 17.97 17.1601 18.6247 17.5646 19.0282L18.9239 20.3865C19.1256 20.5882 19.3904 20.6896 19.6553 20.6896C19.9201 20.6896 20.1849 20.5882 20.3866 20.3865C20.7912 19.9821 20.7912 19.3273 20.3866 18.9238Z" fill="white"/>
</g>
<defs>
<clipPath id="clip0_335_9">
<rect width="60" height="60" fill="white"/>
</clipPath>
</defs>
</symbol><symbol viewBox="0 0 59.99994 59.99867" id="rocket-pink">
<g clip-path="url(#clip0_335_64)">
<path d="M19.0635 23.3911C18.9035 23.0771 18.5905 22.8711 18.2395 22.8481L9.8272 22.2872C9.39127 22.2442 8.98826 22.5142 8.82924 22.9201L2.76473 38.4189C2.60172 38.8349 2.73473 39.3079 3.09074 39.5788C3.26875 39.7148 3.48273 39.7829 3.69566 39.7829C3.90659 39.7829 4.11765 39.7169 4.29565 39.5829L9.32928 35.8083L12.2601 36.3942C12.7381 36.4892 13.216 36.2272 13.39 35.7703C14.9639 31.6476 16.8587 27.8139 19.0195 24.3772C19.2066 24.079 19.2236 23.704 19.0635 23.3911ZM11.828 34.2682L9.28228 33.7593C9.00432 33.7043 8.71428 33.7703 8.48635 33.9402L5.90755 35.874L10.4241 24.3309L16.4617 24.7329C14.7218 27.6777 13.1679 30.8754 11.828 34.2682Z" fill="#EF2A82"/>
<path d="M37.713 50.1741L37.152 41.7607C37.128 41.4086 36.922 41.0957 36.6081 40.9357C36.2951 40.7757 35.9201 40.7916 35.6222 40.9796C32.1844 43.1404 28.3517 45.0353 24.2291 46.6091C23.7731 46.7821 23.5091 47.2601 23.6052 47.739L24.1911 50.6699L20.4164 55.7024C20.1484 56.0604 20.1495 56.5524 20.4204 56.9084C20.6134 57.1623 20.9104 57.3033 21.2163 57.3033C21.3383 57.3033 21.4614 57.2803 21.5813 57.2363L37.0801 51.1718C37.486 51.013 37.742 50.6089 37.713 50.1741ZM24.125 54.0908L26.0588 51.512C26.2289 51.285 26.2948 50.9951 26.2388 50.716L25.7299 48.1712C29.1236 46.8313 32.3203 45.2774 35.2651 43.5376L35.6681 49.5741L24.125 54.0908Z" fill="#EF2A82"/>
<path d="M28.9978 30.0005H22.2603C21.8974 30.0005 21.5634 30.1975 21.3863 30.5145L12.9299 45.7094C12.71 46.1054 12.7839 46.6013 13.1099 46.9153C13.301 47.0993 13.5519 47.1953 13.8039 47.1953C13.9819 47.1953 14.1609 47.1483 14.3208 47.0503L29.5157 37.8551C29.8146 37.6741 29.9977 37.3501 29.9977 37.0002V31.0005C29.9978 30.4486 29.5498 30.0005 28.9978 30.0005ZM27.998 36.4371L16.5099 43.3896L22.8474 32.0014V32.0003H27.998V36.4371Z" fill="#EF2A82"/>
<path d="M59.9496 0.96374C59.9086 0.47683 59.5227 0.0908184 59.0356 0.0498031C58.7037 0.0237878 25.7752 -2.27506 11.5223 35.0562C11.3813 35.4252 11.4703 35.8411 11.7493 36.1201L16.5039 40.8747C16.7269 41.0977 17.0389 41.1997 17.3519 41.1577C17.6629 41.1127 17.9349 40.9248 18.0869 40.6497L22.8505 32.0004H27.9981V36.4491L19.2968 41.9426C19.0398 42.1056 18.8708 42.3756 18.8369 42.6776C18.8029 42.9796 18.9088 43.2805 19.1239 43.4956L23.8785 48.2502C24.0695 48.4412 24.3245 48.5432 24.5854 48.5432C24.7054 48.5432 24.8264 48.5222 24.9424 48.4772C62.2754 34.2232 59.9776 1.29479 59.9496 0.96374ZM54.704 18.7045C51.1952 27.3857 43.1658 39.1879 24.8322 46.3764L21.4225 42.9666L29.5319 37.847C29.8218 37.663 29.9978 37.344 29.9978 37.001V31.0014C29.9978 30.4495 29.5498 30.0015 28.9979 30.0015H22.2584C21.8934 30.0015 21.5584 30.2004 21.3824 30.5194L16.9757 38.5208L13.623 35.167C26.1351 3.24758 52.8051 1.94166 57.9896 2.01467C58.0267 4.34656 57.8127 11.012 54.704 18.7045Z" fill="#EF2A82"/>
<path d="M17.1287 44.1645C16.9116 43.8766 16.5657 43.7365 16.2267 43.7725C16.2617 43.4325 16.1217 43.0876 15.8347 42.8705C14.3269 41.7307 12.381 41.3517 10.4942 41.8296C8.49133 42.3385 6.85342 43.7044 6.00147 45.5793L0.0900048 58.5853C-0.0829623 58.9652 -0.00198652 59.4123 0.292972 59.7062C0.483985 59.8982 0.73992 59.9992 0.999957 59.9992C1.13999 59.9992 1.28097 59.9692 1.41398 59.9092L14.42 53.9967C16.2938 53.1458 17.6598 51.5079 18.1687 49.505C18.6476 47.6202 18.2687 45.6734 17.1287 44.1645ZM16.2308 49.0131C15.8728 50.424 14.9109 51.5769 13.593 52.1769L3.0138 56.9855L7.82243 46.4053C8.42137 45.0875 9.5753 44.1255 10.9862 43.7676C11.3572 43.6736 11.7301 43.6275 12.0981 43.6275C12.7211 43.6275 13.33 43.7606 13.8849 44.0195L12.933 45.7044C12.712 46.0954 12.7791 46.5864 13.097 46.9034C13.4149 47.2224 13.9059 47.2883 14.2959 47.0673L15.9808 46.1144C16.3907 46.9963 16.4838 48.0151 16.2308 49.0131Z" fill="#EF2A82"/>
<path d="M59.9495 0.964828C59.9085 0.477918 59.5225 0.0919066 59.0356 0.0508914C58.6456 0.019837 49.3763 -0.682109 38.4751 4.33956C38.1782 4.4755 37.9671 4.74948 37.9091 5.07151C37.8511 5.39353 37.9551 5.72341 38.1861 5.95439L54.045 21.8132C54.234 22.0022 54.489 22.1062 54.7519 22.1062C54.8109 22.1062 54.87 22.1011 54.9289 22.0912C55.2509 22.0332 55.5239 21.8222 55.6608 21.5252C60.6835 10.624 59.9815 1.35377 59.9495 0.964828ZM54.4279 19.3664L40.633 5.57142C48.6134 2.20267 55.6018 1.97064 57.9906 2.01072C58.0306 4.40155 57.8056 11.368 54.4279 19.3664Z" fill="#EF2A82"/>
<path d="M44.1605 15.8387C40.7977 12.4759 35.3272 12.4759 31.9645 15.8387C28.6017 19.2014 28.6017 24.6719 31.9645 28.0347C33.6454 29.7166 35.8542 30.5566 38.062 30.5566C40.2709 30.5566 42.4787 29.7156 44.1605 28.0347C47.5233 24.6719 47.5233 19.2013 44.1605 15.8387ZM42.7467 26.6207C40.1639 29.2035 35.9612 29.2035 33.3784 26.6207C30.7957 24.038 30.7957 19.8353 33.3784 17.2525C34.6694 15.9616 36.3662 15.3157 38.0621 15.3157C39.7581 15.3157 41.4549 15.9616 42.7468 17.2525C45.3295 19.8353 45.3295 24.038 42.7467 26.6207Z" fill="#EF2A82"/>
<path d="M40.05 23.925C38.954 25.0229 37.1702 25.0219 36.0732 23.925C34.9773 22.8282 34.9773 21.0453 36.0732 19.9483C37.1692 18.8524 38.953 18.8514 40.05 19.9483C40.44 20.3392 41.0739 20.3392 41.4638 19.9483C41.8547 19.5574 41.8547 18.9254 41.4638 18.5344C39.5889 16.6586 36.5352 16.6586 34.6594 18.5344C32.7835 20.4102 32.7835 23.4631 34.6594 25.3389C35.5973 26.2768 36.8303 26.7458 38.0621 26.7458C39.295 26.7458 40.5269 26.2768 41.4638 25.3389C41.8547 24.9479 41.8547 24.316 41.4638 23.925C41.0738 23.5341 40.44 23.5341 40.05 23.925Z" fill="#EF2A82"/>
</g>
<defs>
<clipPath id="clip0_335_64">
<rect width="60" height="60" fill="white"/>
</clipPath>
</defs>
</symbol><symbol viewBox="0 0 60 58" id="computer-white">
<path d="M55.999 0H4.00102C1.79496 0 0 1.79508 0 4.00102V37C0 37.5519 0.448008 37.9999 0.999961 37.9999H58.9999C59.5519 37.9999 59.9999 37.5519 59.9999 37V4.00102C60 1.79508 58.205 0 55.999 0ZM58 36H2.00004V4.00102C2.00004 2.89699 2.89805 2.00004 4.00102 2.00004H55.999C57.102 2.00004 58 2.89699 58 4.00102V36Z" fill="white"/>
<path d="M59 35.9999H0.999961C0.448008 35.9999 0 36.448 0 37V41.9989C0 44.2049 1.79496 45.9999 4.00102 45.9999H55.999C58.205 45.9999 60 44.2049 60 41.9989L59.9999 37C59.9999 36.448 59.552 35.9999 59 35.9999ZM58 41.999C58 43.103 57.102 44 55.999 44H4.00102C2.89805 44 2.00004 43.103 2.00004 41.999V38H58.0001L58 41.999Z" fill="white"/>
<path d="M54.9999 4.00005H5.00001C4.44806 4.00005 4.00005 4.44806 4.00005 5.00001V37C4.00005 37.552 4.44806 38 5.00001 38H55C55.552 38 56 37.552 56 37V5.00001C56 4.44806 55.552 4.00005 54.9999 4.00005ZM54 36H5.99997V5.99997H54V36Z" fill="white"/>
<path d="M42.9999 52.0001H17C15.346 52.0001 14 53.3461 14 55.0001C14 56.6541 15.346 58.0001 17 58.0001H43C44.654 58.0001 46 56.6541 46 55.0001C46 53.3461 44.6539 52.0001 42.9999 52.0001ZM42.9999 56H17C16.4481 56 16 55.5511 16 55.0001C16 54.4491 16.4481 54.0001 17 54.0001H43C43.552 54.0001 44 54.4491 44 55.0001C44 55.5511 43.552 56 42.9999 56Z" fill="white"/>
<path d="M41 52.0001C37.6819 52.0001 35.9999 49.6451 35.9999 45.0001C35.9999 44.4482 35.5519 44.0001 35 44.0001H25C24.4481 44.0001 24 44.4482 24 45.0001C24 49.6451 22.3181 52.0001 19 52.0001C18.4481 52.0001 18 52.4481 18 53C18 53.552 18.4481 54 19 54H41C41.5519 54 41.9999 53.552 41.9999 53C41.9999 52.4481 41.5519 52.0001 41 52.0001ZM23.8709 52.0001C25.102 50.6361 25.8269 48.605 25.9729 46.0001H34.0279C34.1729 48.605 34.8979 50.6361 36.1299 52.0001H23.8709Z" fill="white"/>
</symbol></svg>