<svg width="240" height="165" viewBox="0 0 240 165" fill="none" xmlns="http://www.w3.org/2000/svg">
<rect x="0.351562" y="0.906128" width="239.642" height="163.756" rx="11.9821" fill="white"/>
<rect x="24.7156" y="139.499" width="0.399405" height="190.915" transform="rotate(-90 24.7156 139.499)" fill="#EEEEF7"/>
<rect x="24.7153" y="123.124" width="0.399405" height="190.915" transform="rotate(-90 24.7153 123.124)" fill="#EEEEF7"/>
<rect x="24.7153" y="106.748" width="0.399405" height="190.915" transform="rotate(-90 24.7153 106.748)" fill="#EEEEF7"/>
<rect x="24.7153" y="90.3726" width="0.399405" height="190.915" transform="rotate(-90 24.7153 90.3726)" fill="#EEEEF7"/>
<rect x="24.7153" y="73.997" width="0.399405" height="190.915" transform="rotate(-90 24.7153 73.997)" fill="#EEEEF7"/>
<rect x="24.7153" y="57.6215" width="0.399405" height="190.915" transform="rotate(-90 24.7153 57.6215)" fill="#EEEEF7"/>
<rect x="24.7153" y="41.2459" width="0.399405" height="190.915" transform="rotate(-90 24.7153 41.2459)" fill="#EEEEF7"/>
<rect x="24.7153" y="24.8704" width="0.399405" height="190.915" transform="rotate(-90 24.7153 24.8704)" fill="#EEEEF7"/>
<path d="M24.7163 147.295H24.281V144.41L23.4081 144.73V144.337L24.6484 143.871H24.7163V147.295ZM28.0512 144.777C28.0512 144.947 28.0059 145.098 27.9154 145.231C27.8265 145.364 27.7056 145.467 27.5527 145.542C27.7306 145.619 27.871 145.73 27.9739 145.877C28.0785 146.024 28.1307 146.19 28.1307 146.375C28.1307 146.67 28.0309 146.905 27.8312 147.08C27.633 147.255 27.3717 147.342 27.0472 147.342C26.7196 147.342 26.4567 147.255 26.2585 147.08C26.062 146.904 25.9637 146.669 25.9637 146.375C25.9637 146.191 26.0136 146.025 26.1134 145.877C26.2148 145.729 26.3545 145.616 26.5323 145.54C26.381 145.465 26.2617 145.361 26.1743 145.229C26.0869 145.096 26.0432 144.945 26.0432 144.777C26.0432 144.49 26.1353 144.262 26.3194 144.094C26.5035 143.925 26.7461 143.841 27.0472 143.841C27.3468 143.841 27.5886 143.925 27.7727 144.094C27.9583 144.262 28.0512 144.49 28.0512 144.777ZM27.6978 146.366C27.6978 146.176 27.6369 146.02 27.5153 145.9C27.3951 145.78 27.2375 145.72 27.0425 145.72C26.8475 145.72 26.6907 145.779 26.5721 145.898C26.4551 146.017 26.3966 146.173 26.3966 146.366C26.3966 146.559 26.4536 146.712 26.5674 146.822C26.6829 146.933 26.8428 146.989 27.0472 146.989C27.25 146.989 27.4092 146.933 27.5246 146.822C27.6401 146.71 27.6978 146.558 27.6978 146.366ZM27.0472 144.197C26.8771 144.197 26.7391 144.25 26.633 144.356C26.5284 144.46 26.4762 144.603 26.4762 144.784C26.4762 144.957 26.5277 145.098 26.6306 145.205C26.7352 145.311 26.874 145.364 27.0472 145.364C27.2204 145.364 27.3585 145.311 27.4614 145.205C27.566 145.098 27.6182 144.957 27.6182 144.784C27.6182 144.611 27.5644 144.47 27.4567 144.36C27.3491 144.251 27.2126 144.197 27.0472 144.197ZM29.6215 146.024H28.4794V145.671H29.6215V146.024ZM32.2332 147.295H30.0006V146.984L31.1801 145.673C31.3548 145.475 31.475 145.314 31.5405 145.191C31.6076 145.066 31.6411 144.938 31.6411 144.805C31.6411 144.627 31.5873 144.481 31.4796 144.367C31.372 144.254 31.2285 144.197 31.049 144.197C30.8337 144.197 30.666 144.258 30.5459 144.381C30.4273 144.503 30.368 144.673 30.368 144.892H29.9351C29.9351 144.578 30.0357 144.325 30.237 144.131C30.4398 143.938 30.7105 143.841 31.049 143.841C31.3658 143.841 31.6162 143.924 31.8003 144.091C31.9844 144.257 32.0764 144.477 32.0764 144.754C32.0764 145.089 31.8627 145.488 31.4352 145.952L30.5225 146.942H32.2332V147.295ZM34.5196 146.151H34.9924V146.504H34.5196V147.295H34.0844V146.504H32.5328V146.249L34.0586 143.888H34.5196V146.151ZM33.0242 146.151H34.0844V144.48L34.0329 144.573L33.0242 146.151Z" fill="#8794BA"/>
<path d="M114.987 145.381H115.312C115.517 145.378 115.677 145.324 115.794 145.219C115.911 145.115 115.97 144.974 115.97 144.796C115.97 144.396 115.771 144.197 115.373 144.197C115.186 144.197 115.036 144.25 114.924 144.358C114.813 144.464 114.758 144.605 114.758 144.782H114.325C114.325 144.512 114.423 144.288 114.62 144.11C114.818 143.931 115.069 143.841 115.373 143.841C115.694 143.841 115.946 143.926 116.129 144.096C116.312 144.266 116.403 144.502 116.403 144.805C116.403 144.953 116.354 145.097 116.258 145.236C116.163 145.375 116.032 145.478 115.867 145.547C116.054 145.606 116.198 145.705 116.3 145.842C116.403 145.979 116.454 146.147 116.454 146.345C116.454 146.651 116.354 146.893 116.155 147.073C115.955 147.252 115.695 147.342 115.375 147.342C115.056 147.342 114.795 147.255 114.594 147.082C114.394 146.909 114.294 146.68 114.294 146.396H114.729C114.729 146.576 114.788 146.719 114.905 146.827C115.022 146.935 115.179 146.989 115.375 146.989C115.584 146.989 115.744 146.934 115.855 146.825C115.966 146.716 116.021 146.559 116.021 146.354C116.021 146.156 115.96 146.004 115.839 145.898C115.717 145.792 115.542 145.737 115.312 145.734H114.987V145.381ZM117.248 145.587L117.421 143.888H119.167V144.288H117.788L117.685 145.217C117.852 145.119 118.042 145.07 118.254 145.07C118.564 145.07 118.811 145.172 118.993 145.378C119.176 145.583 119.267 145.86 119.267 146.209C119.267 146.56 119.172 146.837 118.982 147.04C118.793 147.241 118.529 147.342 118.188 147.342C117.887 147.342 117.642 147.258 117.451 147.092C117.261 146.925 117.152 146.694 117.126 146.399H117.535C117.562 146.594 117.631 146.741 117.744 146.841C117.856 146.939 118.004 146.989 118.188 146.989C118.39 146.989 118.547 146.92 118.661 146.783C118.777 146.645 118.834 146.456 118.834 146.214C118.834 145.986 118.772 145.804 118.647 145.666C118.524 145.527 118.359 145.458 118.153 145.458C117.965 145.458 117.816 145.499 117.709 145.582L117.594 145.676L117.248 145.587ZM120.685 146.024H119.543V145.671H120.685V146.024ZM122.892 146.151H123.365V146.504H122.892V147.295H122.457V146.504H120.905V146.249L122.431 143.888H122.892V146.151ZM121.397 146.151H122.457V144.48L122.406 144.573L121.397 146.151ZM125.584 146.151H126.056V146.504H125.584V147.295H125.148V146.504H123.597V146.249L125.123 143.888H125.584V146.151ZM124.088 146.151H125.148V144.48L125.097 144.573L124.088 146.151Z" fill="#8794BA"/>
<path d="M209.511 143.885V144.253H209.431C209.094 144.259 208.826 144.359 208.626 144.552C208.426 144.746 208.311 145.018 208.28 145.369C208.459 145.163 208.704 145.06 209.014 145.06C209.311 145.06 209.547 145.165 209.724 145.374C209.901 145.583 209.99 145.853 209.99 146.183C209.99 146.535 209.894 146.815 209.703 147.026C209.512 147.237 209.256 147.342 208.935 147.342C208.609 147.342 208.344 147.217 208.142 146.967C207.939 146.716 207.837 146.393 207.837 145.999V145.832C207.837 145.205 207.971 144.726 208.238 144.396C208.506 144.063 208.905 143.893 209.433 143.885H209.511ZM208.942 145.421C208.794 145.421 208.657 145.465 208.532 145.554C208.408 145.643 208.321 145.754 208.273 145.889V146.048C208.273 146.329 208.336 146.555 208.462 146.726C208.589 146.898 208.746 146.984 208.935 146.984C209.13 146.984 209.283 146.912 209.394 146.769C209.506 146.625 209.562 146.437 209.562 146.205C209.562 145.971 209.505 145.782 209.391 145.638C209.279 145.493 209.129 145.421 208.942 145.421ZM210.702 145.587L210.875 143.888H212.621V144.288H211.242L211.139 145.217C211.306 145.119 211.496 145.07 211.708 145.07C212.019 145.07 212.265 145.172 212.448 145.378C212.63 145.583 212.721 145.86 212.721 146.209C212.721 146.56 212.626 146.837 212.436 147.04C212.247 147.241 211.983 147.342 211.643 147.342C211.341 147.342 211.096 147.258 210.905 147.092C210.715 146.925 210.607 146.694 210.58 146.399H210.99C211.016 146.594 211.086 146.741 211.198 146.841C211.31 146.939 211.459 146.989 211.643 146.989C211.844 146.989 212.001 146.92 212.115 146.783C212.231 146.645 212.289 146.456 212.289 146.214C212.289 145.986 212.226 145.804 212.101 145.666C211.978 145.527 211.813 145.458 211.607 145.458C211.419 145.458 211.271 145.499 211.163 145.582L211.048 145.676L210.702 145.587ZM214.479 145.467H215.429V145.877H214.479V146.953H214.044V145.877H213.094V145.467H214.044V144.473H214.479V145.467Z" fill="#8794BA"/>
<path d="M216.03 41.0462L194.462 99.1595L172.894 66.4084L145.369 80.1878L117.843 114.736L88.7712 111.142L59.6993 70.4024L41.8079 62.2146L23.9165 91.5708" stroke="#EF2A82" stroke-width="1.59762"/>
<path d="M23.9165 113.538L45.4843 102.199L67.0521 108.589L94.5776 105.901L122.103 99.1595L151.175 99.8609L180.247 107.81L198.138 109.408L216.03 103.68" stroke="#0088F0" stroke-width="1.59762"/>
</svg>
